# xmcd
# 
# Track frame offsets:
#     150
#     10587
#     23440
#     42915
#     58680
#     70112
#     84877
#     97692
#     115180
#     131462
# 
# Disc length: 1964
# 
# Revision: 2
# Processed by: cddbd v1.5.2PL0 Copyright (c) Steve Scherf et al.
# Submitted via: BonkEnc v1.0.8
# 
DISCID=6607aa0a
DTITLE=Willie Nelson - Keepsakes
DYEAR=2002
DGENRE=Country
TTITLE0=Blue Eyes Crying In The Rain
TTITLE1=Remembner Me (When The Candle Lights Are Gleaming)
TTITLE2=Georgia On My Mind
TTITLE3=Let It Be Me
TTITLE4=Mona Lisa
TTITLE5=Nothing I Can Do About It Now
TTITLE6=Midnight Rider
TTITLE7=All Of Me
TTITLE8=Valentine
TTITLE9=Blue Skies
EXTD=
EXTT0=
EXTT1=
EXTT2=
EXTT3=
EXTT4=
EXTT5=
EXTT6=
EXTT7=
EXTT8=
EXTT9=
PLAYORDER=
